<svg width="959" height="959" viewBox="0 0 959 959" fill="none" xmlns="http://www.w3.org/2000/svg">
<g clip-path="url(#clip0_2_376)">
<path d="M959 0H0V959H959V0Z" fill="#1E493D"/>
<path d="M133.215 479.5L648.215 156V803L133.215 479.5Z" fill="url(#paint0_linear_2_376)"/>
<path d="M143.303 516.758C151.755 516.758 158.606 499.629 158.606 478.5C158.606 457.371 151.755 440.242 143.303 440.242C134.851 440.242 128 457.371 128 478.5C128 499.629 134.851 516.758 143.303 516.758Z" fill="white"/>
<path d="M320.58 542C319.313 542 318.68 541.367 318.68 540.1V410.9C318.68 409.633 319.313 409 320.58 409H330.27C331.537 409 332.17 409.633 332.17 410.9V529.46C332.17 529.967 332.423 530.22 332.93 530.22H376.44C377.707 530.22 378.34 530.853 378.34 532.12V540.1C378.34 541.367 377.707 542 376.44 542H320.58ZM425.362 543.52C415.609 543.52 407.755 540.163 401.802 533.45C395.849 526.737 392.872 517.87 392.872 506.85V410.9C392.872 409.633 393.505 409 394.772 409H404.462C405.729 409 406.362 409.633 406.362 410.9V508.37C406.362 515.337 408.072 520.973 411.492 525.28C415.039 529.587 419.662 531.74 425.362 531.74C431.189 531.74 435.875 529.587 439.422 525.28C442.969 520.973 444.742 515.337 444.742 508.37V410.9C444.742 409.633 445.375 409 446.642 409H456.332C457.599 409 458.232 409.633 458.232 410.9V506.85C458.232 517.87 455.192 526.737 449.112 533.45C443.159 540.163 435.242 543.52 425.362 543.52ZM479.433 542C478.8 542 478.293 541.81 477.913 541.43C477.66 540.923 477.66 540.353 477.913 539.72L504.513 476.07C504.767 475.69 504.767 475.31 504.513 474.93L477.913 411.28L477.723 410.52C477.723 409.507 478.293 409 479.433 409H489.503C490.517 409 491.213 409.507 491.593 410.52L511.353 461.06C511.48 461.44 511.67 461.63 511.923 461.63C512.177 461.63 512.367 461.44 512.493 461.06L532.253 410.52C532.633 409.507 533.33 409 534.343 409H544.413C545.047 409 545.49 409.253 545.743 409.76C546.123 410.14 546.187 410.647 545.933 411.28L519.143 475.12C519.017 475.5 519.017 475.88 519.143 476.26L545.933 539.72L546.123 540.48C546.123 541.493 545.553 542 544.413 542H534.343C533.33 542 532.633 541.493 532.253 540.48L512.493 490.13C512.367 489.75 512.177 489.56 511.923 489.56C511.67 489.56 511.48 489.75 511.353 490.13L491.593 540.48C491.213 541.493 490.517 542 489.503 542H479.433Z" fill="white"/>
<path d="M596.9 542.55C592.133 542.55 588.283 541.267 585.35 538.7C582.49 536.06 581.06 532.687 581.06 528.58V527.92C581.06 527.187 581.427 526.82 582.16 526.82H585.57C586.303 526.82 586.67 527.187 586.67 527.92V528.58C586.67 531.22 587.623 533.42 589.53 535.18C591.437 536.94 593.893 537.82 596.9 537.82C599.833 537.82 602.18 536.94 603.94 535.18C605.773 533.347 606.69 531 606.69 528.14C606.69 526.013 606.177 524.253 605.15 522.86C604.123 521.467 602.84 520.367 601.3 519.56C599.76 518.68 597.67 517.69 595.03 516.59C592.17 515.417 589.823 514.28 587.99 513.18C586.157 512.007 584.58 510.43 583.26 508.45C582.013 506.397 581.39 503.83 581.39 500.75C581.39 496.277 582.783 492.72 585.57 490.08C588.357 487.44 592.06 486.12 596.68 486.12C601.373 486.12 605.113 487.477 607.9 490.19C610.687 492.903 612.08 496.423 612.08 500.75V501.08C612.08 501.813 611.713 502.18 610.98 502.18H607.68C606.947 502.18 606.58 501.813 606.58 501.08V500.53C606.58 497.817 605.663 495.543 603.83 493.71C601.997 491.877 599.613 490.96 596.68 490.96C593.747 490.96 591.4 491.877 589.64 493.71C587.88 495.47 587 497.78 587 500.64C587 502.62 587.477 504.27 588.43 505.59C589.383 506.91 590.557 507.973 591.95 508.78C593.417 509.587 595.433 510.577 598 511.75C601.007 512.997 603.463 514.207 605.37 515.38C607.35 516.48 609.037 518.057 610.43 520.11C611.823 522.163 612.52 524.767 612.52 527.92C612.52 532.32 611.09 535.877 608.23 538.59C605.37 541.23 601.593 542.55 596.9 542.55ZM638.068 490.08C638.068 490.813 637.702 491.18 636.968 491.18H628.168C627.875 491.18 627.728 491.327 627.728 491.62V527.04C627.728 530.707 628.352 533.273 629.598 534.74C630.845 536.133 632.825 536.83 635.538 536.83H636.638C637.372 536.83 637.738 537.197 637.738 537.93V540.9C637.738 541.633 637.372 542 636.638 542H634.438C630.332 542 627.215 541.047 625.088 539.14C623.035 537.233 622.008 533.677 622.008 528.47V491.62C622.008 491.327 621.862 491.18 621.568 491.18H617.058C616.325 491.18 615.958 490.813 615.958 490.08V487.66C615.958 486.927 616.325 486.56 617.058 486.56H621.568C621.862 486.56 622.008 486.413 622.008 486.12V473.8C622.008 473.067 622.375 472.7 623.108 472.7H626.628C627.362 472.7 627.728 473.067 627.728 473.8V486.12C627.728 486.413 627.875 486.56 628.168 486.56H636.968C637.702 486.56 638.068 486.927 638.068 487.66V490.08ZM670.93 487.66C670.93 486.927 671.297 486.56 672.03 486.56H675.66C676.393 486.56 676.76 486.927 676.76 487.66V540.9C676.76 541.633 676.393 542 675.66 542H672.03C671.297 542 670.93 541.633 670.93 540.9V536.94C670.93 536.72 670.857 536.61 670.71 536.61C670.637 536.537 670.527 536.573 670.38 536.72C668.033 540.753 664.293 542.77 659.16 542.77C654.76 542.77 651.277 541.45 648.71 538.81C646.143 536.097 644.86 532.063 644.86 526.71V487.66C644.86 486.927 645.227 486.56 645.96 486.56H649.59C650.323 486.56 650.69 486.927 650.69 487.66V525.39C650.69 529.423 651.533 532.467 653.22 534.52C654.98 536.573 657.437 537.6 660.59 537.6C663.817 537.6 666.347 536.427 668.18 534.08C670.013 531.733 670.93 528.507 670.93 524.4V487.66ZM713.497 466.1C713.497 465.367 713.863 465 714.597 465H718.227C718.96 465 719.327 465.367 719.327 466.1V540.9C719.327 541.633 718.96 542 718.227 542H714.597C713.863 542 713.497 541.633 713.497 540.9V537.82C713.497 537.673 713.423 537.6 713.277 537.6C713.203 537.527 713.093 537.563 712.947 537.71C711.627 539.397 710.013 540.68 708.107 541.56C706.2 542.44 704.147 542.88 701.947 542.88C697.4 542.88 693.733 541.377 690.947 538.37C688.233 535.29 686.877 531.33 686.877 526.49V502.18C686.877 497.267 688.233 493.307 690.947 490.3C693.733 487.22 697.4 485.68 701.947 485.68C704.147 485.68 706.2 486.12 708.107 487C710.013 487.88 711.627 489.163 712.947 490.85C713.093 490.997 713.203 491.07 713.277 491.07C713.423 490.997 713.497 490.887 713.497 490.74V466.1ZM703.267 537.71C706.273 537.71 708.73 536.647 710.637 534.52C712.543 532.393 713.497 529.607 713.497 526.16V502.51C713.497 499.063 712.543 496.277 710.637 494.15C708.73 491.95 706.273 490.85 703.267 490.85C700.113 490.85 697.547 491.95 695.567 494.15C693.587 496.277 692.597 499.063 692.597 502.51V526.16C692.597 529.533 693.587 532.32 695.567 534.52C697.547 536.647 700.113 537.71 703.267 537.71ZM734.616 475.45C733.002 475.45 731.682 474.937 730.656 473.91C729.629 472.883 729.116 471.563 729.116 469.95C729.116 468.337 729.629 467.017 730.656 465.99C731.682 464.963 733.002 464.45 734.616 464.45C736.229 464.45 737.549 464.963 738.576 465.99C739.602 467.017 740.116 468.337 740.116 469.95C740.116 471.563 739.602 472.883 738.576 473.91C737.549 474.937 736.229 475.45 734.616 475.45ZM732.856 542C732.122 542 731.756 541.633 731.756 540.9V487.66C731.756 486.927 732.122 486.56 732.856 486.56H736.486C737.219 486.56 737.586 486.927 737.586 487.66V540.9C737.586 541.633 737.219 542 736.486 542H732.856ZM764.984 542.88C760.071 542.88 756.111 541.377 753.104 538.37C750.171 535.29 748.704 531.293 748.704 526.38V502.18C748.704 497.34 750.208 493.38 753.214 490.3C756.221 487.22 760.144 485.68 764.984 485.68C769.971 485.68 773.968 487.22 776.974 490.3C779.981 493.307 781.484 497.267 781.484 502.18V526.38C781.484 531.293 779.981 535.29 776.974 538.37C773.968 541.377 769.971 542.88 764.984 542.88ZM764.984 537.71C768.138 537.71 770.704 536.647 772.684 534.52C774.664 532.32 775.654 529.533 775.654 526.16V502.51C775.654 499.063 774.664 496.277 772.684 494.15C770.704 491.95 768.138 490.85 764.984 490.85C761.904 490.85 759.374 491.95 757.394 494.15C755.488 496.277 754.534 499.063 754.534 502.51V526.16C754.534 529.533 755.488 532.32 757.394 534.52C759.374 536.647 761.904 537.71 764.984 537.71Z" fill="#EC824D"/>
</g>
<defs>
<linearGradient id="paint0_linear_2_376" x1="796.02" y1="478.225" x2="183" y2="478.225" gradientUnits="userSpaceOnUse">
<stop offset="0.251282" stop-color="#EC8F4D" stop-opacity="0"/>
<stop offset="1" stop-color="#EC824D"/>
</linearGradient>
<clipPath id="clip0_2_376">
<rect width="959" height="959" fill="white"/>
</clipPath>
</defs>
</svg>
